<?xml version="1.0" ?><svg id="Layer_5" style="enable-background:new 0 0 62 62.414;" version="1.1" viewBox="0 0 62 62.414" xml:space="preserve" xmlns="http://www.w3.org/2000/svg" xmlns:xlink="http://www.w3.org/1999/xlink"><g><g><g><path d="M19,33.414v4H7c0-2.21,1.79-4,4-4H19z" style="fill:#FFC729;"/></g><g><path d="M51,29.414v24h-4.34c-0.82-2.33-3.05-4-5.66-4s-4.84,1.67-5.66,4H19v-16v-4v-4c0-1.1,0.9-2,2-2h28     C50.1,27.414,51,28.314,51,29.414z" style="fill:#FFEAA7;"/></g><g><path d="M3,41.414c0-2.21,1.79-4,4-4h12v16h-0.34c-0.82-2.33-3.05-4-5.66-4s-4.84,1.67-5.66,4H3v-8h12v-1     c0-1.66-1.34-3-3-3H3z" style="fill:#FCD770;"/></g><g><path d="M46.66,53.414c0.22,0.63,0.34,1.3,0.34,2s-0.12,1.37-0.34,2c-0.82,2.33-3.05,4-5.66,4     s-4.84-1.67-5.66-4c-0.22-0.63-0.34-1.3-0.34-2s0.12-1.37,0.34-2c0.82-2.33,3.05-4,5.66-4S45.84,51.084,46.66,53.414z" style="fill:#969FAA;"/></g><g><path d="M18.66,53.414c0.22,0.63,0.34,1.3,0.34,2s-0.12,1.37-0.34,2c-0.82,2.33-3.05,4-5.66,4     s-4.84-1.67-5.66-4c-0.22-0.63-0.34-1.3-0.34-2s0.12-1.37,0.34-2c0.82-2.33,3.05-4,5.66-4S17.84,51.084,18.66,53.414z" style="fill:#969FAA;"/></g><g><path d="M51,55.414c0,1.1-0.9,2-2,2h-2.34c0.22-0.63,0.34-1.3,0.34-2s-0.12-1.37-0.34-2H51V55.414z" style="fill:#CCD1D9;"/></g><g><circle cx="41" cy="55.414" r="2" style="fill:#CCD1D9;"/></g><g><path d="M35,55.414c0,0.7,0.12,1.37,0.34,2H18.66c0.22-0.63,0.34-1.3,0.34-2s-0.12-1.37-0.34-2H19h16.34     C35.12,54.044,35,54.714,35,55.414z" style="fill:#CCD1D9;"/></g><g><circle cx="13" cy="55.414" r="2" style="fill:#CCD1D9;"/></g><g><path d="M7,55.414c0,0.7,0.12,1.37,0.34,2H2c-0.55,0-1-0.45-1-1v-1c0-1.1,0.9-2,2-2h4.34     C7.12,54.044,7,54.714,7,55.414z" style="fill:#CCD1D9;"/></g><g><path d="M15,44.414v1H3v-4h9C13.66,41.414,15,42.754,15,44.414z" style="fill:#69D6F4;"/></g><g><path d="M61,24.414v9h-6v-7c0-5.52-4.48-10-10-10H15l5,5l-4,4l-12-12l12-12l4,4l-5,5h32     C54.73,10.414,61,16.684,61,24.414z" style="fill:#FF826E;"/></g></g><g><path d="M13,52.414c-1.654,0-3,1.346-3,3s1.346,3,3,3s3-1.346,3-3S14.654,52.414,13,52.414z M13,56.414c-0.551,0-1-0.448-1-1    s0.449-1,1-1s1,0.448,1,1S13.551,56.414,13,56.414z"/><path d="M41,52.414c-1.654,0-3,1.346-3,3s1.346,3,3,3s3-1.346,3-3S42.654,52.414,41,52.414z M41,56.414c-0.551,0-1-0.448-1-1    s0.449-1,1-1s1,0.448,1,1S41.551,56.414,41,56.414z"/><path d="M49,26.414H21c-1.654,0-3,1.346-3,3v3h-7c-2.446,0-4.479,1.768-4.908,4.092C3.768,36.935,2,38.968,2,41.414v11.184    c-1.161,0.414-2,1.514-2,2.816v1c0,1.103,0.897,2,2,2h4.685c1.126,2.361,3.53,4,6.315,4s5.189-1.639,6.315-4h15.37    c1.126,2.361,3.53,4,6.315,4s5.189-1.639,6.315-4H49c1.654,0,3-1.346,3-3v-26C52,27.76,50.654,26.414,49,26.414z M21,28.414h28    c0.551,0,1,0.448,1,1v23h-2.685c-1.126-2.361-3.53-4-6.315-4s-5.189,1.639-6.315,4H20v-23C20,28.862,20.449,28.414,21,28.414z     M11,34.414h7v2H8.184C8.598,35.253,9.698,34.414,11,34.414z M7,38.414h11v12.111c-1.272-1.3-3.042-2.111-5-2.111    c-2.785,0-5.189,1.639-6.315,4H4v-6h12v-2c0-2.206-1.794-4-4-4H4.184C4.598,39.253,5.698,38.414,7,38.414z M12,42.414    c1.103,0,2,0.897,2,2H4v-2H12z M2,56.414v-1c0-0.552,0.449-1,1-1h3.08c-0.047,0.328-0.08,0.66-0.08,1s0.033,0.672,0.08,1H2z     M13,60.414c-2.757,0-5-2.243-5-5s2.243-5,5-5s5,2.243,5,5S15.757,60.414,13,60.414z M19.92,56.414c0.047-0.328,0.08-0.66,0.08-1    s-0.033-0.672-0.08-1h14.16c-0.047,0.328-0.08,0.66-0.08,1s0.033,0.672,0.08,1H19.92z M41,60.414c-2.757,0-5-2.243-5-5    s2.243-5,5-5s5,2.243,5,5S43.757,60.414,41,60.414z M49,56.414h-1.08c0.047-0.328,0.08-0.66,0.08-1s-0.033-0.672-0.08-1H50v1    C50,55.966,49.551,56.414,49,56.414z"/><path d="M47,9.414H17.414l4-4L16,0L2.586,13.414L16,26.828l5.414-5.414l-4-4H45c4.962,0,9,4.037,9,9v7h2v-7    c0-6.065-4.935-11-11-11H12.586l6,6L16,24L5.414,13.414L16,2.828l2.586,2.586l-6,6H47c7.168,0,13,5.832,13,13v9h2v-9    C62,16.143,55.271,9.414,47,9.414z"/><rect height="2" width="8" x="54" y="35.414"/><rect height="2" width="4" x="56" y="39.414"/><rect height="2" width="8" x="54" y="43.414"/><rect height="2" width="4" x="56" y="47.414"/><rect height="2" width="8" x="54" y="51.414"/><rect height="2" width="4" x="56" y="55.414"/><polygon points="46,40.414 48,40.414 48,30.414 42,30.414 42,32.414 46,32.414   "/><rect height="2" width="2" x="46" y="42.414"/></g></g></svg>